<?xml version="1.0" encoding="UTF-8"?>
<svg version="1.1" xmlns="http://www.w3.org/2000/svg" width="346" height="285">
<path d="M0 0 C1.37652752 0.00370431 2.75305633 0.00695088 4.12958592 0.00978523 C7.87416111 0.0187956 11.61868552 0.03421464 15.36323392 0.05076802 C19.41551986 0.0675283 23.46782257 0.07822039 27.52012634 0.0896759 C34.52842952 0.11030595 41.53671116 0.13472018 48.54499245 0.16175652 C58.67760074 0.20084024 68.81022167 0.2341363 78.94285478 0.26605178 C95.38519197 0.31799712 111.82750978 0.37457732 128.26982117 0.43409729 C144.2353083 0.49188121 160.20080064 0.5474548 176.16630554 0.60011292 C177.65926984 0.60504117 177.65926984 0.60504117 179.18239504 0.61006898 C186.96718613 0.63574927 194.75197763 0.66130199 202.53676927 0.68681443 C240.64808903 0.81174604 278.75936171 0.94779726 316.87065125 1.08229065 C316.87065125 94.47229065 316.87065125 187.86229065 316.87065125 284.08229065 C203.35065125 284.08229065 89.83065125 284.08229065 -27.12934875 284.08229065 C-27.31497375 241.47104065 -27.50059875 198.85979065 -27.69184875 154.95729065 C-27.75315979 141.53154358 -27.81447083 128.10579651 -27.87763977 114.27320862 C-27.94563293 97.80519104 -27.94563293 97.80519104 -27.97613525 90.08158875 C-27.99768903 84.71837333 -28.02218902 79.35518125 -28.04876709 73.99198914 C-28.082774 67.12739271 -28.11102529 60.26279131 -28.13579929 53.39815545 C-28.14571438 50.89353698 -28.15742426 48.38892473 -28.17124856 45.88432479 C-28.25267222 30.91571238 -27.96855494 16.02876302 -27.12934875 1.08229065 C-18.06402804 0.24854541 -9.10057185 -0.04953324 0 0 Z " fill="#FEFDFD" transform="translate(29.129348754882813,0.9177093505859375)"/>
<path d="M0 0 C3.47485838 2.07012839 5.74352278 4.11634312 7 8 C7.52055293 11.99090581 7.16996586 13.69523363 5.1875 17.25 C3 20 3 20 0 22 C-1.97265625 22.1953125 -1.97265625 22.1953125 -4.0625 22.125 C-6.04110843 22.06218703 -8.02039479 22 -10 22 C-8.99540849 24.73979504 -8.40512998 25.79743501 -5.75 27.125 C-4.38875 27.558125 -4.38875 27.558125 -3 28 C-1.63875 28.5259375 -1.63875 28.5259375 -0.25 29.0625 C3.24208376 30.06983185 6.42951195 30.32559398 10.046875 30.4609375 C12 31 12 31 13.265625 32.8515625 C14 35 14 35 14 38 C5.69199543 42.03040325 -3.35097709 42.75030479 -12.21484375 40.00390625 C-19.29131638 36.65089304 -25.60413975 31.9273285 -31.87109375 27.26953125 C-34.51815992 25.34949949 -37.16651716 23.62594249 -40 22 C-39.938125 23.216875 -39.87625 24.43375 -39.8125 25.6875 C-39.81943838 29.61462154 -40.49269579 31.86586973 -43 35 C-46.81257671 38.40733537 -49.62909544 38.50549424 -54.58984375 38.359375 C-57.99594517 37.85149602 -59.70351392 36.51178164 -62 34 C-64.8375573 29.74366405 -64.75481967 25.9958168 -64 21 C-62.26851013 17.41811967 -59.51243418 15.36942929 -56.3125 13.0625 C-49.39389235 10.84332396 -43.57143525 12.47085045 -37.125 15.5 C-31.59177767 18.45152605 -26.70960067 22.04348929 -21.76171875 25.87890625 C-14.58754074 31.50269151 -14.58754074 31.50269151 -6 34 C-6.9075 33.443125 -7.815 32.88625 -8.75 32.3125 C-13.51427782 28.92253309 -16.1224515 25.50426613 -18 20 C-18.66138294 14.71662697 -18.64246151 10.33251275 -16.3125 5.5 C-11.45897999 0.25295134 -7.03537883 -1.16192282 0 0 Z " fill="#FBAA23" transform="translate(115,72)"/>
<path d="M0 0 C4.18756882 2.41651058 7.19336193 5.49192671 9 10 C10.02497363 17.20143811 8.24837699 22.80875524 4.0625 28.75 C2.16015157 30.8252892 0.26681541 32.35312785 -2 34 C4.50912133 31.05704621 10.40250495 27.88408529 16.0625 23.5 C24.03415902 17.34716801 32.41036112 10.94630459 43 12 C48.18899695 13.54146369 52.36694704 16.17273624 55 21 C55.62495824 26.6246242 55.15907697 30.14856037 52 35 C48.2498183 38.40113882 45.39287973 38.56029813 40.48046875 38.4296875 C36.45621441 37.73257257 34.74918634 35.96066221 32 33 C30.79727181 30.59454362 30.89928528 29.05003047 30.9375 26.375 C30.94652344 25.55773437 30.95554687 24.74046875 30.96484375 23.8984375 C30.97644531 23.27195312 30.98804688 22.64546875 31 22 C25.57052215 25.10928883 20.39084164 28.37890288 15.375 32.125 C7.65123142 37.84671525 0.91104871 41.17947562 -8.8125 41.25 C-9.51181641 41.270625 -10.21113281 41.29125 -10.93164062 41.3125 C-15.72306977 41.34835728 -18.89852236 40.44672136 -23 38 C-22.125 33.25 -22.125 33.25 -21 31 C-18.95001776 30.6304753 -16.88286595 30.35426086 -14.8125 30.125 C-7.96510855 29.15857385 -4.1960503 27.54279508 0.375 22.25 C0.91125 21.5075 1.4475 20.765 2 20 C1.484375 20.33 0.96875 20.66 0.4375 21 C-2.97498318 22.3999931 -5.33572491 22.4422401 -9 22 C-11.97239241 20.21523759 -14.42604027 18.14791945 -16 15 C-16.68128376 8.18716238 -16.68128376 8.18716238 -14.953125 5.17578125 C-10.5987026 -0.11356126 -6.63888006 -1.16071923 0 0 Z " fill="#FBAA22" transform="translate(233,72)"/>
<path d="M0 0 C0.61101562 0.29003906 1.22203125 0.58007812 1.8515625 0.87890625 C6.42397221 3.28596775 10.19639539 6.53166752 14 10 C13.69140625 11.890625 13.69140625 11.890625 13 14 C8.28544083 16.69403381 3.45455458 18.29377481 -2 17 C-6.47664655 14.56034606 -10.13139575 11.85837106 -12 7 C-12.0777346 4.66796188 -12.08967728 2.33160941 -12 0 C-18.84817102 0.48641215 -25.33042073 1.35993952 -32 3 C-31.53527574 19.12593185 -27.47545369 28.81100379 -15.9375 39.9375 C-11.71785267 44.06791008 -7.91844857 48.31441606 -6 54 C-6.33 54.99 -6.66 55.98 -7 57 C-7.31710938 56.50371094 -7.63421875 56.00742188 -7.9609375 55.49609375 C-15.25100642 44.88320336 -25.74218118 40.49956421 -37.24414062 35.55126953 C-43.98770859 32.62178289 -49.76058429 29.99031812 -53 23 C-53.33796897 19.9682195 -53.24285747 18.42444694 -51.71484375 15.75390625 C-39.02916078 0.11287735 -19.83585354 -9.43215077 0 0 Z " fill="#FBA921" transform="translate(186,36)"/>
<path d="M0 0 C0.99 1.0209375 0.99 1.0209375 2 2.0625 C2.99922567 3.04245685 3.99930548 4.02154313 5 5 C5.51175781 5.53109375 6.02351563 6.0621875 6.55078125 6.609375 C13.86831227 13.68352916 23.40054043 17.41420306 32.52734375 21.62890625 C39.63378695 24.99326687 43.972123 27.43727675 47.25 34.8125 C46.72520255 41.50366754 40.81940904 46.41090118 36.125 50.8125 C26.30134678 59.04984346 14.77958414 60.07018012 2.43701172 59.32128906 C-6.24213624 58.17705357 -14.7017398 52.85657202 -20 46 C-20 45.01 -20 44.02 -20 43 C-15.09625533 39.7975545 -12.03151477 38.23235267 -6 39 C-1.34684659 40.76819829 1.97767044 43.02779543 5 47 C5.68578455 50.0003074 5.92636864 52.92756401 6 56 C12.88940671 55.56367091 19.35751464 54.91610155 26 53 C26.6837488 40.88245186 24.77701539 32.7248809 17.0625 23.28125 C14.76528879 20.74039518 12.34053141 18.37747672 9.875 16 C5.56838273 11.79842217 2.29092218 7.59467312 0 2 C0 1.34 0 0.68 0 0 Z " fill="#C61831" transform="translate(159,54)"/>
<path d="M0 0 C4.95 0 9.9 0 15 0 C15.33 6.93 15.66 13.86 16 21 C17.65 19.68 19.3 18.36 21 17 C23.38349487 15.80825257 24.66923121 15.88924373 27.3125 16.0625 C28.45138672 16.11083984 28.45138672 16.11083984 29.61328125 16.16015625 C32.42631065 17.15001111 34.20775269 18.45486154 36.02954102 20.8269043 C38.24899388 25.79680365 37.49279022 31.54950435 37.3125 36.875 C37.28994141 38.13570312 37.26738281 39.39640625 37.24414062 40.6953125 C37.18537581 43.79809499 37.10325851 46.89843199 37 50 C38.65 50 40.3 50 42 50 C42 50.66 42 51.32 42 52 C36.06 52 30.12 52 24 52 C24 51.01 24 50.02 24 49 C24.99 49 25.98 49 27 49 C26.86188078 44.68721615 26.71321891 40.37486047 26.5625 36.0625 C26.52318359 34.83080078 26.48386719 33.59910156 26.44335938 32.33007812 C26.40146484 31.16025391 26.35957031 29.99042969 26.31640625 28.78515625 C26.27974854 27.70113525 26.24309082 26.61711426 26.20532227 25.50024414 C26.27635735 23.060737 26.27635735 23.060737 25 22 C20.93924048 21.5706488 20.93924048 21.5706488 17.33666992 23.15551758 C15.47791979 25.72042301 15.56820403 27.6127612 15.48828125 30.76171875 C15.45283203 31.87998047 15.41738281 32.99824219 15.38085938 34.15039062 C15.34702148 35.90125977 15.34702148 35.90125977 15.3125 37.6875 C15.27833984 38.86634766 15.24417969 40.04519531 15.20898438 41.25976562 C15.12642075 44.17308225 15.05729678 47.08609466 15 50 C16.32 50 17.64 50 19 50 C19 50.66 19 51.32 19 52 C12.73 52 6.46 52 0 52 C0 51.01 0 50.02 0 49 C1.32 49 2.64 49 4 49 C4.33 33.49 4.66 17.98 5 2 C3.35 2 1.7 2 0 2 C0 1.34 0 0.68 0 0 Z " fill="#C4132B" transform="translate(266,131)"/>
<path d="M0 0 C0.33 -0.99 0.66 -1.98 1 -3 C1.66 -3 2.32 -3 3 -3 C3 1.95 3 6.9 3 12 C1.68 12 0.36 12 -1 12 C-1.17015625 11.37351563 -1.3403125 10.74703125 -1.515625 10.1015625 C-1.75796875 9.28429687 -2.0003125 8.46703125 -2.25 7.625 C-2.48203125 6.81289062 -2.7140625 6.00078125 -2.953125 5.1640625 C-3.83293471 2.89636746 -3.83293471 2.89636746 -5.8203125 1.7265625 C-8.20823024 0.93058992 -10.11161224 0.73318804 -12.625 0.75 C-13.78902344 0.74226562 -13.78902344 0.74226562 -14.9765625 0.734375 C-17.22688411 0.82084646 -17.22688411 0.82084646 -19 3 C-19.47736176 6.58021322 -19.39281281 8.39389079 -17.41015625 11.453125 C-14.15446059 14.89350356 -10.37978958 16.76042502 -6.22070312 18.87304688 C-1.69985405 21.2870925 1.0568212 23.76576135 4 28 C4.9537588 31.14900253 4.78564504 33.81315813 4 37 C1.3206988 41.68434116 -1.80348896 44.45489433 -7 46 C-9.67295006 46.21484045 -12.20613398 46.32497134 -14.875 46.3125 C-15.55691406 46.32861328 -16.23882812 46.34472656 -16.94140625 46.36132812 C-21.98730243 46.36613374 -25.48024327 45.2362765 -30 43 C-30 43.99 -30 44.98 -30 46 C-30.66 46 -31.32 46 -32 46 C-32 40.39 -32 34.78 -32 29 C-31.01 29 -30.02 29 -29 29 C-28.82984375 29.60328125 -28.6596875 30.2065625 -28.484375 30.828125 C-27.06947695 35.49427813 -25.99144049 38.90985252 -22 42 C-18.78797474 43.60601263 -15.48398802 43.47296969 -12 43 C-8.91125677 41.56348718 -8.91125677 41.56348718 -7 39 C-5.99923003 36.0882504 -5.99923003 36.0882504 -7 33 C-11.8130739 27.7391983 -17.65604183 24.92295013 -24.01171875 21.80859375 C-27.87348815 19.47133985 -30.28128451 17.05602691 -31.78515625 12.75390625 C-32.33897255 8.37797745 -32.32311788 6.54526142 -30 2.625 C-21.57709603 -4.74504097 -9.89631748 -4.94815874 0 0 Z " fill="#C61B32" transform="translate(43,137)"/>
<path d="M0 0 C5.09724583 3.44064093 5.09724583 3.44064093 6.06811523 6.44628906 C6.56967529 9.04907102 6.61238373 11.45842928 6.59765625 14.109375 C6.59443359 15.13417969 6.59121094 16.15898437 6.58789062 17.21484375 C6.57951172 18.27832031 6.57113281 19.34179688 6.5625 20.4375 C6.55798828 21.51644531 6.55347656 22.59539062 6.54882812 23.70703125 C6.53705727 26.36724383 6.52061399 29.02734365 6.5 31.6875 C7.985 31.1925 7.985 31.1925 9.5 30.6875 C10.23323796 28.67241642 10.23323796 28.67241642 10.5 26.6875 C11.16 26.6875 11.82 26.6875 12.5 26.6875 C12.71620175 29.3539882 12.80894168 31.12754321 11.5 33.5 C8.29041185 35.40569297 5.06043907 35.46331552 1.5 34.6875 C-1.5 32.1875 -1.5 32.1875 -3.5 29.6875 C-4.11875 30.326875 -4.7375 30.96625 -5.375 31.625 C-8.4245004 34.58480921 -10.21739433 34.88279747 -14.375 35 C-17.60041306 34.93940698 -19.23541516 34.82609206 -22.125 33.3125 C-24.28960829 29.18006599 -24.36494449 25.2398394 -23.5 20.6875 C-20.25835468 16.75823295 -16.4043354 15.68499195 -11.5 14.6875 C-8.80692028 14.54575896 -6.20038816 14.59274954 -3.5 14.6875 C-3.61442461 13.08254433 -3.74194694 11.47851881 -3.875 9.875 C-3.94460937 8.98167969 -4.01421875 8.08835938 -4.0859375 7.16796875 C-4.36645036 4.44351501 -4.36645036 4.44351501 -6.5 1.6875 C-8.92267086 1.63582473 -8.92267086 1.63582473 -11.5 2.6875 C-11.995 3.8425 -12.49 4.9975 -13 6.1875 C-14.5 9.6875 -14.5 9.6875 -17 10.8125 C-19.5 10.6875 -19.5 10.6875 -21.375 9.5625 C-22.5 7.6875 -22.5 7.6875 -22.625 5.25 C-21.28636106 2.20087798 -19.6859781 0.91314559 -16.73046875 -0.5859375 C-11.12071326 -2.41328342 -5.46343093 -2.0487866 0 0 Z " fill="#C61B2F" transform="translate(76.5,148.3125)"/>
<path d="M0 0 C4.95 0 9.9 0 15 0 C15.06058594 1.99804688 15.12117187 3.99609375 15.18359375 6.0546875 C15.24616611 7.98747831 15.30877104 9.92026822 15.37231445 11.85302734 C15.43698251 13.85894807 15.49683106 15.86502228 15.55664062 17.87109375 C15.61948242 19.75634766 15.61948242 19.75634766 15.68359375 21.6796875 C15.72025146 22.84226074 15.75690918 24.00483398 15.79467773 25.20263672 C15.81821659 27.9535501 15.81821659 27.9535501 17 30 C19.87413125 30.33397787 19.87413125 30.33397787 23 30 C26.03076202 26.97678271 26.40030636 24.54848082 26.51171875 20.359375 C26.54716797 19.28945312 26.58261719 18.21953125 26.61914062 17.1171875 C26.64169922 16.00601563 26.66425781 14.89484375 26.6875 13.75 C26.72166016 12.62335938 26.75582031 11.49671875 26.79101562 10.3359375 C26.87343014 7.55739099 26.94260298 4.77915748 27 2 C26.01 1.67 25.02 1.34 24 1 C28.29 1 32.58 1 37 1 C37 11.56 37 22.12 37 33 C38.65 33 40.3 33 42 33 C42 33.66 42 34.32 42 35 C37.38 35 32.76 35 28 35 C27.505 32.525 27.505 32.525 27 30 C26.21625 30.825 25.4325 31.65 24.625 32.5 C21.04228863 35.47850114 17.90551112 35.71984391 13.34375 35.5 C9.75414588 34.73421779 8.13005942 32.88588695 6 30 C4.6691089 27.33821779 4.88731007 25.31260604 4.90234375 22.3359375 C4.90556641 21.21445313 4.90878906 20.09296875 4.91210938 18.9375 C4.92048828 17.761875 4.92886719 16.58625 4.9375 15.375 C4.94201172 14.19164062 4.94652344 13.00828125 4.95117188 11.7890625 C4.96298533 8.85932493 4.97945742 5.92968728 5 3 C3.35 3 1.7 3 0 3 C0 2.01 0 1.02 0 0 Z " fill="#C61D35" transform="translate(185,148)"/>
<path d="M0 0 C3.5678106 1.25534077 5.4231515 2.32701008 7.875 5.1875 C9.88753235 10.21883087 9.57083655 14.3192035 7.875 19.3125 C5.52771052 22.67694825 3.87958723 23.68240434 0 25 C-5.35968578 25.77025424 -9.42812937 25.08335461 -14 22 C-16.92757701 18.58449349 -17.53361127 15.48816535 -17.35546875 10.9921875 C-16.61480587 6.84121971 -14.04431115 4.16034572 -11.3125 1.125 C-7.60288141 -0.67967931 -4.04197198 -0.51226381 0 0 Z " fill="#FDBD26" transform="translate(121,200)"/>
<path d="M0 0 C3.43403788 2.00011167 6.21175747 4.42351494 8 8 C8.37414872 13.61223087 8.16077934 17.14594602 5 22 C1.09434276 25.60456032 -2.16513388 25.5531786 -7.296875 25.4296875 C-11.50628945 24.76056093 -13.17179955 23.12590576 -16 20 C-17.98141781 16.03716439 -17.55820645 11.30789762 -17 7 C-13.31249226 -0.12734705 -7.42441496 -1.20785258 0 0 Z " fill="#FDBD26" transform="translate(175,200)"/>
<path d="M0 0 C1.62890625 1.16796875 1.62890625 1.16796875 3.62890625 4.16796875 C3.08836571 8.70850929 3.08836571 8.70850929 1.62890625 10.16796875 C-1.30859375 10.35546875 -1.30859375 10.35546875 -4.37109375 10.16796875 C-7.05665315 7.48240935 -7.43159349 4.79175547 -8.37109375 1.16796875 C-11.84257217 0.41839718 -11.84257217 0.41839718 -15.37109375 0.16796875 C-17.14022165 5.49641348 -17.68079755 10.13323754 -17.62109375 15.73046875 C-17.62882813 16.45943359 -17.6365625 17.18839844 -17.64453125 17.93945312 C-17.6284856 22.39613214 -17.04225692 25.97016603 -15.37109375 30.16796875 C-9.59615236 30.51446523 -5.37805393 30.46523521 -0.37109375 27.16796875 C0.28890625 26.17796875 0.94890625 25.18796875 1.62890625 24.16796875 C2.28890625 24.16796875 2.94890625 24.16796875 3.62890625 24.16796875 C2.73593847 27.73983989 1.69171342 29.1163273 -1.18359375 31.48046875 C-6.53331439 34.23400143 -12.53890336 33.91202397 -18.37109375 33.16796875 C-22.87775143 31.03323617 -25.54524695 28.24974746 -28.37109375 24.16796875 C-30.06978213 19.07190361 -30.38262494 13.17507507 -28.65234375 8.03125 C-26.11411517 3.31301058 -22.7258603 0.47617239 -18.12109375 -2.08203125 C-11.4264346 -3.90784738 -6.10502024 -3.21901067 0 0 Z " fill="#C61B31" transform="translate(260.37109375,149.83203125)"/>
<path d="M0 0 C2 1.1875 2 1.1875 3 3 C2.75546876 6.34192692 2.39456443 7.60543557 0 10 C-2.4375 10.375 -2.4375 10.375 -5 10 C-6.625 8.0625 -6.625 8.0625 -8 6 C-8.99 5.67 -9.98 5.34 -11 5 C-12.63505164 8.61719318 -13.28135282 11.56035906 -13.4140625 15.51953125 C-13.47207031 17.0519043 -13.47207031 17.0519043 -13.53125 18.61523438 C-13.57765625 20.19788086 -13.57765625 20.19788086 -13.625 21.8125 C-13.68300781 23.42415039 -13.68300781 23.42415039 -13.7421875 25.06835938 C-13.83618613 27.71207088 -13.92184573 30.3557805 -14 33 C-11.36 33 -8.72 33 -6 33 C-6 33.66 -6 34.32 -6 35 C-13.59 35 -21.18 35 -29 35 C-29 34.01 -29 33.02 -29 32 C-27.68 31.67 -26.36 31.34 -25 31 C-24.67 21.43 -24.34 11.86 -24 2 C-25.65 2 -27.3 2 -29 2 C-29 1.67 -29 1.34 -29 1 C-24.38 1 -19.76 1 -15 1 C-14.67 2.65 -14.34 4.3 -14 6 C-13.21625 5.195625 -12.4325 4.39125 -11.625 3.5625 C-7.69137471 -0.27746755 -5.46629446 -0.38359961 0 0 Z " fill="#C61D32" transform="translate(181,148)"/>
<path d="M0 0 C14.19642857 -0.53571429 14.19642857 -0.53571429 17.8125 1.875 C21.02993654 5.00050978 21.22059949 6.9239624 21.375 11.3125 C21.34253511 15.44636326 21.27101286 16.63112139 18.75 20.0625 C11.69911967 25.03016568 10.17970512 24 0 24 C0 16.08 0 8.16 0 0 Z " fill="#FDBB21" transform="translate(212,201)"/>
<path d="M0 0 C4.95 0 9.9 0 15 0 C15.33 6.93 15.66 13.86 16 21 C17.65 19.68 19.3 18.36 21 17 C23.38349487 15.80825257 24.66923121 15.88924373 27.3125 16.0625 C28.45138672 16.11083984 28.45138672 16.11083984 29.61328125 16.16015625 C32.42631065 17.15001111 34.20775269 18.45486154 36.02954102 20.8269043 C38.24899388 25.79680365 37.49279022 31.54950435 37.3125 36.875 C37.28994141 38.13570312 37.26738281 39.39640625 37.24414062 40.6953125 C37.18537581 43.79809499 37.10325851 46.89843199 37 50 C38.65 50 40.3 50 42 50 C42 50.66 42 51.32 42 52 C36.06 52 30.12 52 24 52 C24 51.01 24 50.02 24 49 C24.99 49 25.98 49 27 49 C26.86188078 44.68721615 26.71321891 40.37486047 26.5625 36.0625 C26.52318359 34.83080078 26.48386719 33.59910156 26.44335938 32.33007812 C26.40146484 31.16025391 26.35957031 29.99042969 26.31640625 28.78515625 C26.27974854 27.70113525 26.24309082 26.61711426 26.20532227 25.50024414 C26.27635735 23.060737 26.27635735 23.060737 25 22 C20.96839809 21.73706944 19.44107266 21.70595156 16 24 C15.34 23.67 14.68 23.34 14 23 C14 15.74 14 8.48 14 1 C9.38 1.33 4.76 1.66 0 2 C0 1.34 0 0.68 0 0 Z " fill="#C72236" transform="translate(266,131)"/>
<path d="M0 0 C5.94 0 11.88 0 18 0 C18 0.33 18 0.66 18 1 C16.35 1 14.7 1 13 1 C14.12179066 3.91791111 15.24799538 6.83409916 16.375 9.75 C16.69210938 10.575 17.00921875 11.4 17.3359375 12.25 C17.8 13.44882813 17.8 13.44882813 18.2734375 14.671875 C18.55622559 15.4050293 18.83901367 16.13818359 19.13037109 16.89355469 C19.98860525 18.97239923 20.99420077 20.98840153 22 23 C24.64 16.07 27.28 9.14 30 2 C28.02 2 26.04 2 24 2 C24 1.34 24 0.68 24 0 C28.29 0 32.58 0 37 0 C37 0.66 37 1.32 37 2 C35.68 2 34.36 2 33 2 C32.83129395 2.59353271 32.66258789 3.18706543 32.48876953 3.79858398 C30.58210785 10.34580803 28.32614956 16.70118329 25.875 23.0625 C25.51535156 24.01060547 25.15570313 24.95871094 24.78515625 25.93554688 C22.13109756 32.86890244 22.13109756 32.86890244 21 34 C19.33382885 34.04063832 17.66611905 34.042721 16 34 C12.60591712 28.50053679 10.38357457 22.98444437 8.3125 16.875 C8.00505859 15.99457031 7.69761719 15.11414063 7.38085938 14.20703125 C5.98197206 10.14811533 4.77839963 6.22960037 4 2 C2.68 2 1.36 2 0 2 C0 1.34 0 0.68 0 0 Z " fill="#C61B32" transform="translate(90,149)"/>
<path d="M0 0 C4.95 0 9.9 0 15 0 C15 10.56 15 21.12 15 32 C16.65 32.33 18.3 32.66 20 33 C20 33.66 20 34.32 20 35 C13.4 35 6.8 35 0 35 C0 34.01 0 33.02 0 32 C1.32 31.67 2.64 31.34 4 31 C4.33 21.43 4.66 11.86 5 2 C3.35 2 1.7 2 0 2 C0 1.34 0 0.68 0 0 Z " fill="#C4132C" transform="translate(311,148)"/>
<path d="M0 0 C4.62 0 9.24 0 14 0 C14 10.56 14 21.12 14 32 C15.65 32 17.3 32 19 32 C19 32.66 19 33.32 19 34 C12.4 34 5.8 34 -1 34 C-1 33.01 -1 32.02 -1 31 C0.32 30.67 1.64 30.34 3 30 C3.33 20.43 3.66 10.86 4 1 C2.68 0.67 1.36 0.34 0 0 Z " fill="#C61D31" transform="translate(130,149)"/>
<path d="M0 0 C3.88265681 0.72799815 5.46228253 1.50231129 8 4.5625 C8.90705593 8.86115635 8.72920717 12.31677109 6.5 16.125 C2.9652424 18.15748562 -0.02340703 18.49145819 -4 17.5625 C-7.24985922 14.88136615 -7.89575014 13.21116582 -8.5625 9.0625 C-8 5.5625 -8 5.5625 -5.875 2.625 C-3 0.5625 -3 0.5625 0 0 Z " fill="#FEFCF8" transform="translate(170,203.4375)"/>
<path d="M0 0 C3.88265681 0.72799815 5.46228253 1.50231129 8 4.5625 C8.90705593 8.86115635 8.72920717 12.31677109 6.5 16.125 C2.9652424 18.15748562 -0.02340703 18.49145819 -4 17.5625 C-7.24985922 14.88136615 -7.89575014 13.21116582 -8.5625 9.0625 C-8 5.5625 -8 5.5625 -5.875 2.625 C-3 0.5625 -3 0.5625 0 0 Z " fill="#FEFDFA" transform="translate(117,203.4375)"/>
<path d="M0 0 C5.28 0 10.56 0 16 0 C16 1.65 16 3.3 16 5 C12.37 5 8.74 5 5 5 C5 6.98 5 8.96 5 11 C8.63 11 12.26 11 16 11 C16 12.32 16 13.64 16 15 C12.37 15 8.74 15 5 15 C5 18.3 5 21.6 5 25 C3.35 25 1.7 25 0 25 C0 16.75 0 8.5 0 0 Z " fill="#FDC340" transform="translate(61,200)"/>
<path d="M0 0 C2 1.5 2 1.5 3 3 C-0.4019487 5.09350689 -3.05272412 5.17942163 -7 5 C-7.33 6.32 -7.66 7.64 -8 9 C-7.37351562 9.19335938 -6.74703125 9.38671875 -6.1015625 9.5859375 C-5.28429687 9.84632813 -4.46703125 10.10671875 -3.625 10.375 C-2.81289063 10.63023437 -2.00078125 10.88546875 -1.1640625 11.1484375 C1 12 1 12 3 14 C3.67276051 21.06398537 3.67276051 21.06398537 1.5625 24 C-2.23119874 25.4804678 -5.97773453 25.5703765 -10 25 C-10.99 24.34 -11.98 23.68 -13 23 C-12.34 21.68 -11.68 20.36 -11 19 C-8.03 19.33 -5.06 19.66 -2 20 C-2.5200072 16.031758 -2.5200072 16.031758 -4.8125 14.76953125 C-5.534375 14.45371094 -6.25625 14.13789063 -7 13.8125 C-10.96440129 12.03559871 -10.96440129 12.03559871 -12 11 C-12.58252427 3.77669903 -12.58252427 3.77669903 -10.5 1 C-6.74404458 -0.50238217 -4.04953637 -0.38567013 0 0 Z " fill="#FDBC22" transform="translate(274,200)"/>
<path d="M0 0 C0.33 0.66 0.66 1.32 1 2 C1.66 2 2.32 2 3 2 C2.67 2.99 2.34 3.98 2 5 C1.93259135 6.56118428 1.91485544 8.1250252 1.9375 9.6875 C1.94652344 10.49574219 1.95554687 11.30398437 1.96484375 12.13671875 C1.97644531 12.75160156 1.98804688 13.36648437 2 14 C3.65 14.33 5.3 14.66 7 15 C8.32 13.35 9.64 11.7 11 10 C11.33 10.99 11.66 11.98 12 13 C6.01103114 19.14657331 6.01103114 19.14657331 0.125 19.3125 C-3.10041306 19.25190698 -4.73541516 19.13859206 -7.625 17.625 C-9.78450719 13.50230446 -9.8841456 9.54163682 -9 5 C-6.35936358 1.99260852 -3.96040855 0.58672719 0 0 Z " fill="#C61D33" transform="translate(62,164)"/>
<path d="M0 0 C8.18204489 0.48129676 8.18204489 0.48129676 11.5625 2.625 C13.59145852 5.97719234 13.54964081 8.15251431 13 12 C11.13291495 14.36497439 9.67938569 15.66030715 7 17 C4.69 17 2.38 17 0 17 C0 11.39 0 5.78 0 0 Z " fill="#FEFAF3" transform="translate(216,204)"/>
<path d="M0 0 C0.51211281 6.40141012 0.11888494 9.98010898 -4 15 C-8.875 14.125 -8.875 14.125 -10 13 C-10.43352411 9.9467516 -10.47437699 7.04880495 -10 4 C-6.9505084 0.42773841 -4.6507689 -0.53151645 0 0 Z " fill="#FAF0F1" transform="translate(73,165)"/>
<path d="M0 0 C6.99658528 -0.25807077 13.59202015 -0.20398992 20 3 C20.33 2.01 20.66 1.02 21 0 C21.66 0 22.32 0 23 0 C23 4.95 23 9.9 23 15 C21.68 15 20.36 15 19 15 C18.82984375 14.37351563 18.6596875 13.74703125 18.484375 13.1015625 C18.24203125 12.28429687 17.9996875 11.46703125 17.75 10.625 C17.51796875 9.81289062 17.2859375 9.00078125 17.046875 8.1640625 C16.17390937 5.91563458 16.17390937 5.91563458 14.28125 4.78125 C11.45592537 3.81367307 8.7019381 3.32420797 5.75 2.875 C4.67234375 2.70742187 3.5946875 2.53984375 2.484375 2.3671875 C1.25460938 2.18542969 1.25460938 2.18542969 0 2 C0 1.34 0 0.68 0 0 Z " fill="#CD394B" transform="translate(23,134)"/>
<path d="M0 0 C1.875 1.1875 1.875 1.1875 3 3 C2.77669287 6.64734979 2.61627165 8.38372835 0 11 C-3.5 11.25 -3.5 11.25 -7 11 C-9 9 -9 9 -9.375 5.5625 C-9 2 -9 2 -7.3125 0 C-4.35711914 -1.27800253 -3.01001617 -1.08051862 0 0 Z " fill="#FEFAF2" transform="translate(279,93)"/>
<path d="M0 0 C0.66 0.66 1.32 1.32 2 2 C1.8125 5.5 1.8125 5.5 1 9 C-2 11 -2 11 -5.0625 10.75 C-8 10 -8 10 -10 8 C-10.375 5.0625 -10.375 5.0625 -10 2 C-6.94783427 -1.63912068 -4.35383535 -1.23043173 0 0 Z " fill="#C82439" transform="translate(143,133)"/>
<path d="M0 0 C2.15502531 3.23253796 2.46856135 4.25150923 2 8 C0.875 9.8125 0.875 9.8125 -1 11 C-4.14485925 11.39310741 -6.13281671 11.47555213 -8.9375 9.9375 C-10.68524469 6.75043615 -9.92651358 4.39721645 -9 1 C-6.04691177 -1.53121849 -3.56890521 -1.22094126 0 0 Z " fill="#FEFBF5" transform="translate(67,93)"/>
<path d="M0 0 C6.5157967 -0.54298306 11.58350448 0.11622983 17 4 C19 7 19 7 18.6875 9.625 C18 12 18 12 17 13 C14.0625 13.1875 14.0625 13.1875 11 13 C8.30175965 10.30175965 7.96078789 7.65099396 7 4 C6.67 3.01 6.34 2.02 6 1 C4.02 1 2.04 1 0 1 C0 0.67 0 0.34 0 0 Z " fill="#C61D33" transform="translate(245,147)"/>
<path d="M0 0 C0.20674944 5.78898419 -0.40837921 10.42932723 -2 16 C-2.474375 15.29875 -2.94875 14.5975 -3.4375 13.875 C-6.31832735 10.64285224 -9.33502074 8.6246298 -12.9765625 6.33203125 C-15 5 -15 5 -17 3 C-16.08476562 2.86722656 -15.16953125 2.73445313 -14.2265625 2.59765625 C-13.03804687 2.42105469 -11.84953125 2.24445313 -10.625 2.0625 C-9.44164062 1.88847656 -8.25828125 1.71445313 -7.0390625 1.53515625 C-4.47352859 1.08338485 -2.5415907 0 0 0 Z " fill="#F26466" transform="translate(210,70)"/>
<path d="M0 0 C2.9375 0.8125 2.9375 0.8125 4.9375 2.8125 C5.271228 5.94954316 5.46599028 7.97804166 3.75 10.6875 C1.28242892 12.21909584 -0.20769831 12.24072025 -3.0625 11.8125 C-4.875 10.6875 -4.875 10.6875 -6.0625 8.8125 C-6.45954314 5.63615485 -6.56183741 3.67246999 -4.9375 0.875 C-3.0625 -0.1875 -3.0625 -0.1875 0 0 Z " fill="#C61A31" transform="translate(321.0625,132.1875)"/>
<path d="M0 0 C0.639375 0.70125 1.27875 1.4025 1.9375 2.125 C4.99961922 5.22251944 8.5405288 7.44490241 12.20703125 9.765625 C12.79871094 10.17296875 13.39039063 10.5803125 14 11 C14 11.33 14 11.66 14 12 C13.18015625 12.13277344 12.3603125 12.26554687 11.515625 12.40234375 C9.89914063 12.66724609 9.89914063 12.66724609 8.25 12.9375 C7.18265625 13.11152344 6.1153125 13.28554687 5.015625 13.46484375 C2.63652407 13.88704171 0.33084789 14.37202884 -2 15 C-2.3690205 4.44191344 -2.3690205 4.44191344 0 0 Z " fill="#FECE56" transform="translate(131,61)"/>
<path d="M0 0 C0 0.33 0 0.66 0 1 C-2.64 1.33 -5.28 1.66 -8 2 C-8.99 4.97 -9.98 7.94 -11 11 C-13.3125 11.6875 -13.3125 11.6875 -16 12 C-17.875 10.875 -17.875 10.875 -19 9 C-19.125 6.5625 -19.125 6.5625 -18 4 C-12.27829877 -0.60223795 -7.13795978 -0.46467731 0 0 Z " fill="#CA3043" transform="translate(73,147)"/>
<path d="M0 0 C4.95 0 9.9 0 15 0 C15 10.56 15 21.12 15 32 C16.65 32.33 18.3 32.66 20 33 C20 33.66 20 34.32 20 35 C13.4 35 6.8 35 0 35 C0 34.01 0 33.02 0 32 C6.93 32.495 6.93 32.495 14 33 C14 22.44 14 11.88 14 1 C9.38 1 4.76 1 0 1 C0 0.67 0 0.34 0 0 Z " fill="#D3636B" transform="translate(311,148)"/>
<path d="M0 0 C0.66 0 1.32 0 2 0 C2 7.26 2 14.52 2 22 C3.32 22 4.64 22 6 22 C6 22.66 6 23.32 6 24 C-0.27 24 -6.54 24 -13 24 C-13 23.01 -13 22.02 -13 21 C-11.68 21 -10.36 21 -9 21 C-8.67 20.34 -8.34 19.68 -8 19 C-8 19.99 -8 20.98 -8 22 C-5.36 22 -2.72 22 0 22 C0 14.74 0 7.48 0 0 Z " fill="#CC3E49" transform="translate(279,159)"/>
<path d="M0 0 C0.33 0.99 0.66 1.98 1 3 C-5.50652302 5.61736323 -11.08167409 6.39871196 -18.0625 6.1875 C-18.92810547 6.17396484 -19.79371094 6.16042969 -20.68554688 6.14648438 C-22.79064174 6.1115933 -24.89540974 6.05780665 -27 6 C-22.99288745 1.99288745 -17.68088633 2.67131435 -12.32421875 2.37890625 C-8.01985571 1.88827968 -4.31633185 0 0 0 Z " fill="#C72131" transform="translate(186,107)"/>
<path d="M0 0 C1.010625 0.0825 2.02125 0.165 3.0625 0.25 C5.0625 3.25 5.0625 3.25 4.8125 5.3125 C4.0625 7.25 4.0625 7.25 2.0625 9.25 C-0.4375 9.5625 -0.4375 9.5625 -2.9375 9.25 C-4.9375 6.25 -4.9375 6.25 -4.625 3.625 C-3.63837192 0.21664846 -3.64560971 0.31026466 0 0 Z " fill="#FEF9F1" transform="translate(110.9375,78.75)"/>
<path d="M0 0 C2.9375 0.1875 2.9375 0.1875 3.9375 1.1875 C4.125 4.125 4.125 4.125 3.9375 7.1875 C3.2775 7.8475 2.6175 8.5075 1.9375 9.1875 C-1.1875 8.8125 -1.1875 8.8125 -4.0625 8.1875 C-4.6875 5.3125 -4.6875 5.3125 -5.0625 2.1875 C-3.0625 0.1875 -3.0625 0.1875 0 0 Z " fill="#FEFBF5" transform="translate(228.0625,78.8125)"/>
<path d="M0 0 C2.75 -0.3125 2.75 -0.3125 6 0 C8.71568468 2.21542697 9.87689279 3.81261111 10.2421875 7.3359375 C10.24924256 9.57239282 10.17482975 11.77092068 10 14 C8.68 14.33 7.36 14.66 6 15 C4.68 13.35 3.36 11.7 2 10 C2.99 9.34 3.98 8.68 5 8 C5.2502157 4.91634129 5.2502157 4.91634129 5 2 C3.35 1.67 1.7 1.34 0 1 C0 0.67 0 0.34 0 0 Z " fill="#FECC56" transform="translate(226,78)"/>
<path d="M0 0 C-0.598125 0.28875 -1.19625 0.5775 -1.8125 0.875 C-4.19327792 2.04742026 -4.19327792 2.04742026 -7 4 C-7.72965366 6.56282742 -7.72965366 6.56282742 -8 9 C-10.97 8.505 -10.97 8.505 -14 8 C-14.33 6.02 -14.66 4.04 -15 2 C-10.13948404 -0.59227518 -5.34728867 -0.18689553 0 0 Z " fill="#FECC52" transform="translate(278,91)"/>
<path d="M0 0 C2.97 0 5.94 0 9 0 C9 0.33 9 0.66 9 1 C7.02 1.33 5.04 1.66 3 2 C3.61488281 2.38671875 4.22976562 2.7734375 4.86328125 3.171875 C5.67152344 3.69265625 6.47976562 4.2134375 7.3125 4.75 C8.11300781 5.26046875 8.91351563 5.7709375 9.73828125 6.296875 C12.00368861 8.00277761 13.42684167 9.65808145 15 12 C14.34 13.32 13.68 14.64 13 16 C12.505 15.113125 12.01 14.22625 11.5 13.3125 C8.83580305 9.27323365 5.12683195 7.33882057 1 5 C0.01 4.34 -0.98 3.68 -2 3 C-1.34 3 -0.68 3 0 3 C0 2.01 0 1.02 0 0 Z " fill="#F9E1E3" transform="translate(192,72)"/>
<path d="M0 0 C9.41002278 -0.3690205 9.41002278 -0.3690205 14 2 C14 3.98 14 5.96 14 8 C12.02 8.33 10.04 8.66 8 9 C7.34 7.02 6.68 5.04 6 3 C3.69 2.67 1.38 2.34 -1 2 C-0.67 1.34 -0.34 0.68 0 0 Z " fill="#FECD54" transform="translate(61,91)"/>
<path d="M0 0 C0.9075 0.103125 1.815 0.20625 2.75 0.3125 C2.75 0.6425 2.75 0.9725 2.75 1.3125 C0.77 1.9725 -1.21 2.6325 -3.25 3.3125 C-2.98343428 6.24693402 -2.98343428 6.24693402 -2.25 9.3125 C-1.26 9.9725 -0.27 10.6325 0.75 11.3125 C-0.24 11.6425 -1.23 11.9725 -2.25 12.3125 C-2.58 13.3025 -2.91 14.2925 -3.25 15.3125 C-4.57 14.9825 -5.89 14.6525 -7.25 14.3125 C-7.60766296 9.75229722 -7.80752445 6.36321916 -5.625 2.25 C-3.25 0.3125 -3.25 0.3125 0 0 Z " fill="#FECC52" transform="translate(110.25,77.6875)"/>
<path d="M0 0 C0.99 0.33 1.98 0.66 3 1 C4.56118428 1.06740865 6.1250252 1.08514456 7.6875 1.0625 C8.49574219 1.05347656 9.30398438 1.04445312 10.13671875 1.03515625 C10.75160156 1.02355469 11.36648438 1.01195312 12 1 C12 2.32 12 3.64 12 5 C9.6603331 6.16983345 8.16608473 6.1661241 5.5625 6.1875 C4.38880859 6.20876953 4.38880859 6.20876953 3.19140625 6.23046875 C1 6 1 6 -2 4 C-1.34 2.68 -0.68 1.36 0 0 Z " fill="#FDBC25" transform="translate(263,219)"/>
<path d="M0 0 C4.95 0 9.9 0 15 0 C15.33 6.93 15.66 13.86 16 21 C17.32 20.01 18.64 19.02 20 18 C20 18.66 20 19.32 20 20 C21.32 20.33 22.64 20.66 24 21 C22.576875 21.4640625 22.576875 21.4640625 21.125 21.9375 C18.13919592 22.87394742 18.13919592 22.87394742 16 24 C15.34 23.67 14.68 23.34 14 23 C14 15.74 14 8.48 14 1 C9.38 1.33 4.76 1.66 0 2 C0 1.34 0 0.68 0 0 Z " fill="#CD4348" transform="translate(266,131)"/>
<path d="M0 0 C4.29 0 8.58 0 13 0 C13 0.66 13 1.32 13 2 C11.68 2 10.36 2 9 2 C8.34 4.64 7.68 7.28 7 10 C6.01 9.67 5.02 9.34 4 9 C4.66 6.69 5.32 4.38 6 2 C4.02 2 2.04 2 0 2 C0 1.34 0 0.68 0 0 Z " fill="#CF3F4E" transform="translate(114,149)"/>
<path d="M0 0 C0.45375 0.70125 0.9075 1.4025 1.375 2.125 C5.00402577 6.09964727 9.32653918 8.40462386 14 11 C12.02 11.99 12.02 11.99 10 13 C8.72689688 12.06558465 7.456612 11.12732889 6.1875 10.1875 C5.47980469 9.66542969 4.77210938 9.14335938 4.04296875 8.60546875 C2.19643185 7.15436614 0.51891514 5.79154094 -1 4 C-0.6875 1.8125 -0.6875 1.8125 0 0 Z " fill="#FEF5E6" transform="translate(133,59)"/>
<path d="M0 0 C-0.5775 0.268125 -1.155 0.53625 -1.75 0.8125 C-4.05396098 1.94184834 -4.05396098 1.94184834 -6.0625 3.625 C-8 5 -8 5 -11 5 C-11.33 5.99 -11.66 6.98 -12 8 C-12.66 7.34 -13.32 6.68 -14 6 C-8.96308234 0.83053187 -7.24243188 -0.13411911 0 0 Z " fill="#CA2F40" transform="translate(181,148)"/>
<path d="M0 0 C-0.33 0.99 -0.66 1.98 -1 3 C-0.01 3.33 0.98 3.66 2 4 C-0.64 4.66 -3.28 5.32 -6 6 C-6.33 5.34 -6.66 4.68 -7 4 C-7.99 4.495 -7.99 4.495 -9 5 C-6.81610567 0.16423399 -5.20641855 -0.13701101 0 0 Z " fill="#FDBF30" transform="translate(117,200)"/>
<path d="M0 0 C3.26008643 3.16952847 6.22237877 6.39937989 9 10 C8.67 10.66 8.34 11.32 8 12 C4.3392481 10.77974937 4.07660559 9.873509 2.3125 6.5625 C1.87550781 5.75941406 1.43851563 4.95632812 0.98828125 4.12890625 C0 2 0 2 0 0 Z " fill="#CC3844" transform="translate(159,54)"/>
<path d="M0 0 C0.66 0 1.32 0 2 0 C1.44894091 3.9492568 0.61064629 7.34920174 -1 11 C-1.99 11 -2.98 11 -4 11 C-3.5247412 9.35303396 -3.04468109 7.70745272 -2.5625 6.0625 C-2.29566406 5.14597656 -2.02882813 4.22945312 -1.75390625 3.28515625 C-1 1 -1 1 0 0 Z " fill="#C92B38" transform="translate(118,158)"/>
<path d="M0 0 C0.90105469 0.00902344 1.80210937 0.01804687 2.73046875 0.02734375 C3.41753906 0.03894531 4.10460937 0.05054687 4.8125 0.0625 C4.8125 0.7225 4.8125 1.3825 4.8125 2.0625 C-0.1375 2.3925 -5.0875 2.7225 -10.1875 3.0625 C-7.02470604 -0.10029396 -4.26614261 -0.05540445 0 0 Z " fill="#CA3242" transform="translate(169.1875,109.9375)"/>
<path d="M0 0 C1.4370809 -0.05422947 2.87475462 -0.09289723 4.3125 -0.125 C5.11300781 -0.14820313 5.91351563 -0.17140625 6.73828125 -0.1953125 C9 0 9 0 12 2 C11.01 3.32 10.02 4.64 9 6 C7.5 4.625 7.5 4.625 6 3 C6 2.34 6 1.68 6 1 C4.02 1 2.04 1 0 1 C0 0.67 0 0.34 0 0 Z " fill="#CE4855" transform="translate(245,147)"/>
<path d="M0 0 C0.66 0.99 1.32 1.98 2 3 C-0.31 4.98 -2.62 6.96 -5 9 C-5.66 7.68 -6.32 6.36 -7 5 C-6.21625 4.731875 -5.4325 4.46375 -4.625 4.1875 C-1.71885077 3.15185568 -1.71885077 3.15185568 0 0 Z " fill="#CB3743" transform="translate(211,174)"/>
<path d="M0 0 C3.63 0 7.26 0 11 0 C11 0.99 11 1.98 11 3 C7.37 2.67 3.74 2.34 0 2 C0 1.34 0 0.68 0 0 Z " fill="#FEB813" transform="translate(214,221)"/>
<path d="M0 0 C0.66 0 1.32 0 2 0 C0.98823563 3.40320742 0.35156418 4.75725331 -2.625 6.8125 C-3.40875 7.204375 -4.1925 7.59625 -5 8 C-5.99 7.34 -6.98 6.68 -8 6 C-7.05125 5.566875 -6.1025 5.13375 -5.125 4.6875 C-1.79958063 3.20697799 -1.79958063 3.20697799 0 0 Z " fill="#CC3844" transform="translate(262,174)"/>
<path d="M0 0 C2 2 2 2 2.125 5.125 C2.08375 6.07375 2.0425 7.0225 2 8 C1.01 8.33 0.02 8.66 -1 9 C-1.09765625 2.84765625 -1.09765625 2.84765625 -1 1 C-0.67 0.67 -0.34 0.34 0 0 Z " fill="#FEC134" transform="translate(105,208)"/>
<path d="M0 0 C0.598125 0.350625 1.19625 0.70125 1.8125 1.0625 C1.4825 1.7225 1.1525 2.3825 0.8125 3.0625 C-2.25 3.6875 -2.25 3.6875 -5.1875 4.0625 C-5.1875 2.7425 -5.1875 1.4225 -5.1875 0.0625 C-2.1875 -0.9375 -2.1875 -0.9375 0 0 Z " fill="#FBB034" transform="translate(159.1875,34.9375)"/>
<path d="M0 0 C0 0.66 0 1.32 0 2 C-2.96187272 4.17204 -5.50685991 5.83561997 -9 7 C-7.4576387 2.93377477 -4.5679954 0 0 0 Z " fill="#CA3140" transform="translate(22,135)"/>
<path d="M0 0 C-0.33 0.99 -0.66 1.98 -1 3 C-2.98 3 -4.96 3 -7 3 C-7 2.01 -7 1.02 -7 0 C-2.25 -1.125 -2.25 -1.125 0 0 Z " fill="#FDB817" transform="translate(175,222)"/>
<path d="M0 0 C0.99 0.33 1.98 0.66 3 1 C3 2.65 3 4.3 3 6 C0.525 5.01 0.525 5.01 -2 4 C-1.34 2.68 -0.68 1.36 0 0 Z " fill="#FDC33D" transform="translate(263,219)"/>
<path d="M0 0 C2.97 1.32 5.94 2.64 9 4 C5.59068103 5.13643966 4.99664544 4.86747764 1.8125 3.5625 C1.09707031 3.27503906 0.38164063 2.98757812 -0.35546875 2.69140625 C-0.89816406 2.46324219 -1.44085938 2.23507813 -2 2 C-1.34 1.34 -0.68 0.68 0 0 Z " fill="#FDE0B7" transform="translate(104,103)"/>
</svg>
